<?xml version="1.0" encoding="UTF-8" standalone="no"?>
<!-- Created with Inkscape (http://www.inkscape.org/) -->

<svg
   xmlns:dc="http://purl.org/dc/elements/1.1/"
   xmlns:cc="http://creativecommons.org/ns#"
   xmlns:rdf="http://www.w3.org/1999/02/22-rdf-syntax-ns#"
   xmlns:svg="http://www.w3.org/2000/svg"
   xmlns="http://www.w3.org/2000/svg"
   xmlns:xlink="http://www.w3.org/1999/xlink"
   xmlns:sodipodi="http://sodipodi.sourceforge.net/DTD/sodipodi-0.dtd"
   xmlns:inkscape="http://www.inkscape.org/namespaces/inkscape"
   width="684.07104"
   height="459.42459"
   id="svg2"
   version="1.1"
   inkscape:version="0.48.4 r9943 custom"
   sodipodi:docname="zoom.svg">
  <defs
     id="defs4">
    <linearGradient
       inkscape:collect="always"
       id="linearGradient7613">
      <stop
         style="stop-color:#6c0000;stop-opacity:1;"
         offset="0"
         id="stop7615" />
      <stop
         style="stop-color:#6c0000;stop-opacity:0;"
         offset="1"
         id="stop7617" />
    </linearGradient>
    <marker
       inkscape:stockid="DiamondS"
       orient="auto"
       refY="0.0"
       refX="0.0"
       id="DiamondS"
       style="overflow:visible">
      <path
         id="path3916"
         d="M 0,-7.0710768 L -7.0710894,0 L 0,7.0710589 L 7.0710462,0 L 0,-7.0710768 z "
         style="fill-rule:evenodd;stroke:#000000;stroke-width:1.0pt"
         transform="scale(0.2)" />
    </marker>
    <marker
       inkscape:stockid="EmptyDiamondSstart"
       orient="auto"
       refY="0.0"
       refX="0.0"
       id="EmptyDiamondSstart"
       style="overflow:visible">
      <path
         id="path3952"
         d="M 0,-7.0710768 L -7.0710894,0 L 0,7.0710589 L 7.0710462,0 L 0,-7.0710768 z "
         style="fill-rule:evenodd;fill:#FFFFFF;stroke:#000000;stroke-width:1.0pt"
         transform="scale(0.2) translate(6,0)" />
    </marker>
    <marker
       inkscape:stockid="DotS"
       orient="auto"
       refY="0.0"
       refX="0.0"
       id="DotS"
       style="overflow:visible">
      <path
         id="path3898"
         d="M -2.5,-1.0 C -2.5,1.7600000 -4.7400000,4.0 -7.5,4.0 C -10.260000,4.0 -12.5,1.7600000 -12.5,-1.0 C -12.5,-3.7600000 -10.260000,-6.0 -7.5,-6.0 C -4.7400000,-6.0 -2.5,-3.7600000 -2.5,-1.0 z "
         style="fill-rule:evenodd;stroke:#000000;stroke-width:1.0pt"
         transform="scale(0.2) translate(7.4, 1)" />
    </marker>
    <marker
       inkscape:stockid="DotM"
       orient="auto"
       refY="0.0"
       refX="0.0"
       id="DotM"
       style="overflow:visible">
      <path
         id="path3895"
         d="M -2.5,-1.0 C -2.5,1.7600000 -4.7400000,4.0 -7.5,4.0 C -10.260000,4.0 -12.5,1.7600000 -12.5,-1.0 C -12.5,-3.7600000 -10.260000,-6.0 -7.5,-6.0 C -4.7400000,-6.0 -2.5,-3.7600000 -2.5,-1.0 z "
         style="fill-rule:evenodd;stroke:#000000;stroke-width:1.0pt"
         transform="scale(0.4) translate(7.4, 1)" />
    </marker>
    <marker
       inkscape:stockid="EmptyDiamondM"
       orient="auto"
       refY="0.0"
       refX="0.0"
       id="EmptyDiamondM"
       style="overflow:visible">
      <path
         id="path3940"
         d="M 0,-7.0710768 L -7.0710894,0 L 0,7.0710589 L 7.0710462,0 L 0,-7.0710768 z "
         style="fill-rule:evenodd;fill:#FFFFFF;stroke:#000000;stroke-width:1.0pt"
         transform="scale(0.4)" />
    </marker>
    <marker
       inkscape:stockid="DotL"
       orient="auto"
       refY="0"
       refX="0"
       id="DotL"
       style="overflow:visible">
      <path
         id="path3850"
         d="m -2.5,-1 c 0,2.76 -2.24,5 -5,5 -2.76,0 -5,-2.24 -5,-5 0,-2.76 2.24,-5 5,-5 2.76,0 5,2.24 5,5 z"
         style="fill-rule:evenodd;stroke:#000000;stroke-width:1pt"
         transform="matrix(0.8,0,0,0.8,5.92,0.8)"
         inkscape:connector-curvature="0" />
    </marker>
    <linearGradient
       inkscape:collect="always"
       xlink:href="#linearGradient7613"
       id="linearGradient7619"
       x1="288.47335"
       y1="84.368982"
       x2="434.86544"
       y2="84.368982"
       gradientUnits="userSpaceOnUse" />
  </defs>
  <sodipodi:namedview
     id="base"
     pagecolor="#ffffff"
     bordercolor="#666666"
     borderopacity="1.0"
     inkscape:pageopacity="0.0"
     inkscape:pageshadow="2"
     inkscape:zoom="1"
     inkscape:cx="362.13892"
     inkscape:cy="194.89832"
     inkscape:document-units="px"
     inkscape:current-layer="layer1"
     showgrid="false"
     inkscape:window-width="1782"
     inkscape:window-height="1152"
     inkscape:window-x="170"
     inkscape:window-y="133"
     inkscape:window-maximized="0"
     fit-margin-top="10"
     fit-margin-left="10"
     fit-margin-right="10"
     fit-margin-bottom="10" />
  <metadata
     id="metadata7">
    <rdf:RDF>
      <cc:Work
         rdf:about="">
        <dc:format>image/svg+xml</dc:format>
        <dc:type
           rdf:resource="http://purl.org/dc/dcmitype/StillImage" />
        <dc:title />
      </cc:Work>
    </rdf:RDF>
  </metadata>
  <g
     inkscape:label="Layer 1"
     inkscape:groupmode="layer"
     id="layer1"
     transform="translate(-11.473352,-29.944408)">
    <path
       style="fill:none;stroke:#000000;stroke-width:1.50000000000000000;stroke-linecap:butt;stroke-linejoin:miter;stroke-miterlimit:4;stroke-opacity:1;stroke-dasharray:none"
       d="m 607.15206,258.72235 c 44.54561,-36.29034 26.1179,-99.51337 49.10991,-140.75762"
       id="path3024"
       inkscape:connector-curvature="0" />
    <path
       style="fill:none;stroke:#000000;stroke-width:1px;stroke-linecap:butt;stroke-linejoin:miter;stroke-opacity:1"
       d="m 129.29952,293.73762 c 0,0 0,0 0,0 z"
       id="path2987"
       inkscape:connector-curvature="0" />
    <path
       style="fill:none;stroke:#f605d7;stroke-width:1.5;stroke-linecap:butt;stroke-linejoin:miter;stroke-miterlimit:4;stroke-opacity:1;stroke-dasharray:none"
       d="M 115.15738,125.04215 C 91.828532,98.368948 49.090112,61.158118 29.294422,49.280708"
       id="path3003"
       inkscape:connector-curvature="0" />
    <path
       style="fill:none;stroke:#f605d7;stroke-width:1.5;stroke-linecap:butt;stroke-linejoin:miter;stroke-miterlimit:4;stroke-opacity:1;stroke-dasharray:none"
       d="M 116.67262,123.52692 C 114.41026,107.9749 106.96853,51.561938 105.56094,40.694408"
       id="path3005"
       inkscape:connector-curvature="0"
       sodipodi:nodetypes="cc" />
    <path
       style="fill:none;stroke:#f605d7;stroke-width:1.5;stroke-linecap:butt;stroke-linejoin:miter;stroke-miterlimit:4;stroke-opacity:1;stroke-dasharray:none"
       d="m 159.6041,213.93557 c 48.44615,-18.87961 119.198,-11.06732 119.198,-67.68022"
       id="path3013"
       inkscape:connector-curvature="0" />
    <path
       style="fill:none;stroke:#f605d7;stroke-width:1.5;stroke-linecap:butt;stroke-linejoin:miter;stroke-miterlimit:4;stroke-opacity:1;stroke-dasharray:none;marker-end:url(#DotL)"
       d="m 120.20815,124.03199 c 3.06839,-8.92072 5.66072,-18.29445 11.3617,-25.97333 4.92474,-6.001113 12.12288,-9.360883 18.04007,-14.216941 3.44198,-2.628872 6.76762,-5.408389 9.99418,-8.297044"
       id="path4958"
       inkscape:connector-curvature="0" />
    <path
       style="fill:none;stroke:#f605d7;stroke-width:1.5;stroke-linecap:butt;stroke-linejoin:miter;stroke-miterlimit:4;stroke-opacity:1;stroke-dasharray:none"
       d="M 128.28937,294.74778 C 88.291882,285.801 56.223152,268.0401 22.223352,250.30107"
       id="path5324"
       inkscape:connector-curvature="0" />
    <path
       sodipodi:type="arc"
       style="opacity:0.98000003999999996;fill:none;stroke:#006200;stroke-width:4.5;stroke-miterlimit:4;stroke-opacity:1;stroke-dasharray:none;stroke-dashoffset:0"
       id="path5531"
       sodipodi:cx="240.41631"
       sodipodi:cy="279.59549"
       sodipodi:rx="18.182745"
       sodipodi:ry="19.192898"
       d="m 258.59905,279.59549 c 0,10.59994 -8.14069,19.1929 -18.18274,19.1929 -10.04206,0 -18.18275,-8.59296 -18.18275,-19.1929 0,-10.59995 8.14069,-19.1929 18.18275,-19.1929 10.04205,0 18.18274,8.59295 18.18274,19.1929 z"
       transform="translate(-119.198,-151.52288)" />
    <path
       sodipodi:type="arc"
       style="opacity:0.98000004;fill:none;stroke:#006200;stroke-width:5;stroke-miterlimit:4;stroke-opacity:1;stroke-dasharray:none;stroke-dashoffset:0"
       id="path5533"
       sodipodi:cx="243.95184"
       sodipodi:cy="282.12088"
       sodipodi:rx="33.840111"
       sodipodi:ry="35.860416"
       d="m 277.79195,282.12088 c 0,19.80516 -15.15073,35.86042 -33.84011,35.86042 -18.68937,0 -33.84011,-16.05526 -33.84011,-35.86042 0,-19.80516 15.15074,-35.86042 33.84011,-35.86042 18.68938,0 33.84011,16.05526 33.84011,35.86042 z"
       transform="translate(-121.21831,-153.54319)" />
    <path
       sodipodi:type="arc"
       style="opacity:0.98000003999999996;fill:none;stroke:#006200;stroke-width:4.5;stroke-miterlimit:4;stroke-opacity:1;stroke-dasharray:none;stroke-dashoffset:0"
       id="path5535"
       sodipodi:cx="368.20059"
       sodipodi:cy="342.73001"
       sodipodi:rx="12.626906"
       sodipodi:ry="12.626906"
       d="m 380.8275,342.73001 c 0,6.97365 -5.65326,12.62691 -12.62691,12.62691 -6.97365,0 -12.6269,-5.65326 -12.6269,-12.62691 0,-6.97365 5.65325,-12.62691 12.6269,-12.62691 6.97365,0 12.62691,5.65326 12.62691,12.62691 z"
       transform="translate(-118.18785,-153.54319)" />
    <path
       sodipodi:type="arc"
       style="opacity:0.98000004;fill:none;stroke:#006200;stroke-width:5;stroke-miterlimit:4;stroke-opacity:1;stroke-dasharray:none;stroke-dashoffset:0"
       id="path5537"
       sodipodi:cx="368.70569"
       sodipodi:cy="341.21478"
       sodipodi:rx="29.294424"
       sodipodi:ry="29.294424"
       d="m 398.00011,341.21478 c 0,16.17887 -13.11556,29.29443 -29.29442,29.29443 -16.17887,0 -29.29443,-13.11556 -29.29443,-29.29443 0,-16.17886 13.11556,-29.29442 29.29443,-29.29442 16.17886,0 29.29442,13.11556 29.29442,29.29442 z"
       transform="translate(-118.18785,-151.52288)" />
    <path
       sodipodi:type="arc"
       style="opacity:0.98000003999999996;fill:none;stroke:#0062c4;stroke-width:2.7725078;stroke-miterlimit:4;stroke-opacity:1;stroke-dasharray:none;stroke-dashoffset:0"
       id="path5541"
       sodipodi:cx="177.28177"
       sodipodi:cy="234.13863"
       sodipodi:rx="116.67262"
       sodipodi:ry="172.73608"
       d="m 293.95439,234.13863 c 0,95.3995 -52.23611,172.73608 -116.67262,172.73608 -64.43651,0 -116.672624,-77.33658 -116.672624,-172.73608 0,-95.39951 52.236114,-172.736088 116.672624,-172.736088 64.43651,0 116.67262,77.336578 116.67262,172.736088 z"
       transform="matrix(1.1073936,0,0.36386502,1.057292,-96.152567,-11.393962)" />
    <path
       style="fill:none;stroke:#000000;stroke-width:1.50000000000000000;stroke-linecap:butt;stroke-linejoin:miter;stroke-miterlimit:4;stroke-opacity:1;stroke-dasharray:none"
       d="M 532.35039,139.18429 C 520.36352,125.27898 514.14783,107.73284 508.10673,90.696958"
       id="path5735"
       inkscape:connector-curvature="0" />
    <path
       style="fill:none;stroke:#000000;stroke-width:1.50000000000000000;stroke-linecap:butt;stroke-linejoin:miter;stroke-miterlimit:4;stroke-opacity:1;stroke-dasharray:none"
       d="m 538.4113,191.71221 c -34.94194,-0.91617 -69.93146,-4.30343 -104.04571,-12.12183"
       id="path6283"
       inkscape:connector-curvature="0" />
    <path
       style="fill:none;stroke:#000000;stroke-width:1.50000000000000000;stroke-linecap:butt;stroke-linejoin:miter;stroke-miterlimit:4;stroke-opacity:1;stroke-dasharray:none"
       d="m 594.70852,102.6498 c 0.63296,-15.167609 12.34035,-25.65424 21.3423,-36.514135"
       id="path6839"
       inkscape:connector-curvature="0" />
    <text
       xml:space="preserve"
       style="font-size:28px;font-style:normal;font-variant:normal;font-weight:normal;font-stretch:normal;text-align:start;line-height:125%;letter-spacing:0px;word-spacing:0px;writing-mode:lr-tb;text-anchor:start;fill:#000000;fill-opacity:1;stroke:none;font-family:Sans;-inkscape-font-specification:Sans"
       x="76.771599"
       y="473.54477"
       id="text7041"
       sodipodi:linespacing="125%"><tspan
         sodipodi:role="line"
         id="tspan7043"
         x="76.771599"
         y="473.54477">input tree</tspan></text>
    <text
       xml:space="preserve"
       style="font-size:28px;font-style:normal;font-variant:normal;font-weight:normal;font-stretch:normal;text-align:start;line-height:125%;letter-spacing:0px;word-spacing:0px;writing-mode:lr-tb;text-anchor:start;fill:#000000;fill-opacity:1;stroke:none;font-family:Sans;-inkscape-font-specification:Sans"
       x="323.24881"
       y="64.432991"
       id="text7045"
       sodipodi:linespacing="125%"><tspan
         sodipodi:role="line"
         id="tspan7047"
         x="323.24881"
         y="64.432991">Zoom</tspan></text>
    <text
       xml:space="preserve"
       style="font-size:28px;font-style:normal;font-variant:normal;font-weight:normal;font-stretch:normal;text-align:start;line-height:125%;letter-spacing:0px;word-spacing:0px;writing-mode:lr-tb;text-anchor:start;fill:#000000;fill-opacity:1;stroke:none;font-family:Sans;-inkscape-font-specification:Sans"
       x="519.21838"
       y="473.54477"
       id="text7049"
       sodipodi:linespacing="125%"><tspan
         sodipodi:role="line"
         id="tspan7051"
         x="519.21838"
         y="473.54477">output tree</tspan></text>
    <path
       style="fill:none;stroke:#f605d7;stroke-width:1.5;stroke-linecap:butt;stroke-linejoin:miter;stroke-miterlimit:4;stroke-opacity:1;stroke-dasharray:none;marker-start:none;marker-end:url(#DotL)"
       d="M 158.08887,212.42035 C 149.49565,178.34909 128.94046,161.52519 118.18784,128.0726"
       id="path2999"
       inkscape:connector-curvature="0"
       sodipodi:nodetypes="cc" />
    <path
       style="fill:none;stroke:#f605d7;stroke-width:1.5;stroke-linecap:butt;stroke-linejoin:miter;stroke-miterlimit:4;stroke-opacity:1;stroke-dasharray:none;marker-start:none;marker-end:url(#DotL)"
       d="m 130.81476,295.25285 c 1.80661,-16.73039 14.2897,-56.46861 27.77919,-79.29697"
       id="path2995"
       inkscape:connector-curvature="0"
       sodipodi:nodetypes="cc" />
    <path
       style="fill:none;stroke:#f605d7;stroke-width:1.5;stroke-linecap:butt;stroke-linejoin:miter;stroke-miterlimit:4;stroke-opacity:1;stroke-dasharray:none;marker-end:url(#DotL)"
       d="m 134.35028,426.0676 c -7.94857,-43.76414 -12.75437,-93.56018 -4.04061,-131.31983"
       id="path5326"
       inkscape:connector-curvature="0" />
    <path
       style="fill:none;stroke:#006200;stroke-width:1.5;stroke-linecap:butt;stroke-linejoin:miter;stroke-miterlimit:4;stroke-opacity:1;stroke-dasharray:none;marker-end:url(#DotL)"
       d="m 540.4316,186.66145 c -10.019,-12.80154 -8.08871,-29.36319 -7.07106,-44.44671"
       id="path5733"
       inkscape:connector-curvature="0" />
    <path
       style="fill:none;stroke:#006200;stroke-width:1.5;stroke-linecap:butt;stroke-linejoin:miter;stroke-miterlimit:4;stroke-opacity:1;stroke-dasharray:none;marker-end:url(#DotL)"
       d="m 602.05091,261.41274 c -23.24811,-7.64697 -45.34433,-23.299 -53.4282,-47.35147 -3.08814,-7.89958 -5.2689,-16.11705 -7.18095,-24.36936"
       id="path5729"
       inkscape:connector-curvature="0" />
    <path
       style="fill:none;stroke:#006200;stroke-width:1.5;stroke-linecap:butt;stroke-linejoin:miter;stroke-miterlimit:4;stroke-opacity:1;stroke-dasharray:none;marker-end:url(#DotL)"
       d="m 600.19021,151.93605 c -2.81795,-14.88894 -5.18222,-29.85834 -7.77625,-44.78678"
       id="path6837"
       inkscape:connector-curvature="0" />
    <path
       style="fill:none;stroke:#006200;stroke-width:1.5;stroke-linecap:butt;stroke-linejoin:miter;stroke-miterlimit:4;stroke-opacity:1;stroke-dasharray:none;marker-end:url(#DotL)"
       d="m 605.2236,257.68977 c -1.48537,-33.63253 -3.52545,-67.26941 -3.1741,-100.95021"
       id="path6285"
       inkscape:connector-curvature="0" />
    <path
       style="fill:none;stroke:#006200;stroke-width:1.5;stroke-linecap:butt;stroke-linejoin:miter;stroke-miterlimit:4;stroke-opacity:1;stroke-dasharray:none;marker-end:url(#DotL)"
       d="m 661.64991,227.06755 c 12.00913,-8.25323 13.90059,-23.36561 17.17259,-36.36549"
       id="path6289"
       inkscape:connector-curvature="0" />
    <path
       style="fill:none;stroke:#006200;stroke-width:1.5;stroke-linecap:butt;stroke-linejoin:miter;stroke-miterlimit:4;stroke-opacity:1;stroke-dasharray:none;marker-end:url(#DotL)"
       d="m 612.15244,259.39243 c 15.87789,-8.6006 30.33129,-19.49674 45.45686,-29.29442"
       id="path6287"
       inkscape:connector-curvature="0" />
    <path
       style="fill:none;stroke:#0040b4;stroke-width:1.5;stroke-linecap:butt;stroke-linejoin:miter;stroke-miterlimit:4;stroke-opacity:1;stroke-dasharray:none;marker-end:url(#DotL)"
       d="M 594.97985,391.72242 C 599.65059,348.726 607.86982,305.8588 606.09152,262.42289"
       id="path5545"
       inkscape:connector-curvature="0" />
    <path
       sodipodi:type="arc"
       style="opacity:0.98000003999999996;fill:none;stroke:#006200;stroke-width:4.50000003;stroke-miterlimit:4;stroke-opacity:1;stroke-dasharray:none;stroke-dashoffset:0"
       id="path5539"
       sodipodi:cx="279.81226"
       sodipodi:cy="371.01428"
       sodipodi:rx="14.142136"
       sodipodi:ry="18.687822"
       d="m 293.95439,371.01428 c 0,10.321 -6.33165,18.68782 -14.14213,18.68782 -7.81049,0 -14.14214,-8.36682 -14.14214,-18.68782 0,-10.321 6.33165,-18.68782 14.14214,-18.68782 7.81048,0 14.14213,8.36682 14.14213,18.68782 z"
       transform="matrix(0.94710289,0.32093006,-0.32093006,0.94710289,12.652592,-225.73808)" />
    <path
       sodipodi:type="arc"
       style="opacity:0.98000004;fill:none;stroke:#006200;stroke-width:5;stroke-miterlimit:4;stroke-opacity:1;stroke-dasharray:none"
       id="path5529"
       sodipodi:cx="255.06352"
       sodipodi:cy="398.79349"
       sodipodi:rx="38.890873"
       sodipodi:ry="69.700523"
       d="m 293.9544,398.79349 c 0,38.49453 -17.41204,69.70052 -38.89088,69.70052 -21.47883,0 -38.89087,-31.20599 -38.89087,-69.70052 0,-38.49454 17.41204,-69.70053 38.89087,-69.70053 21.47884,0 38.89088,31.20599 38.89088,69.70053 z"
       transform="matrix(0.93803929,0.34652893,-0.34652893,0.93803929,43.890772,-211.15963)" />
    <path
       style="fill:none;stroke:url(#linearGradient7619);stroke-width:10;stroke-linecap:butt;stroke-linejoin:miter;stroke-miterlimit:4;stroke-opacity:1;stroke-dasharray:none;marker-start:url(#EmptyDiamondSstart);marker-end:url(#DiamondS)"
       d="m 293.47335,84.369 c 125,0 126,0 126,0"
       id="path3825"
       inkscape:connector-curvature="0" />
  </g>
</svg>
